<svg width="37" height="37" viewBox="0 0 37 37" fill="none" xmlns="http://www.w3.org/2000/svg">
<g clip-path="url(#clip0_87_1367)">
<path d="M35.4577 4.62488C33.9814 5.66624 32.3468 6.46271 30.6168 6.98363C29.6884 5.91604 28.4544 5.15936 27.0819 4.81593C25.7093 4.4725 24.2644 4.55889 22.9426 5.06341C21.6207 5.56793 20.4857 6.46625 19.691 7.63686C18.8964 8.80747 18.4804 10.1939 18.4993 11.6086V13.1503C15.7901 13.2205 13.1055 12.6197 10.6847 11.4012C8.26383 10.1827 6.18192 8.38444 4.62435 6.16654C4.62435 6.16654 -1.54232 20.0415 12.3327 26.2082C9.15766 28.3634 5.37538 29.4441 1.54102 29.2915C15.416 36.9999 32.3743 29.2915 32.3743 11.5624C32.3729 11.133 32.3316 10.7046 32.251 10.2828C33.8244 8.7311 34.9348 6.77198 35.4577 4.62488Z" stroke="#303030" stroke-width="4" stroke-linecap="round" stroke-linejoin="round"/>
</g>
<defs>
<clipPath id="clip0_87_1367">
<rect width="37" height="37" fill="white"/>
</clipPath>
</defs>
</svg>
